solid GeneratedModel
  facet normal 9.951847e-1 9.801714e-2 0.000000e+0
    outer loop
      vertex 3.000000e+0 0.000000e+0 -4.000000e+0
      vertex 2.942356e+0 5.852710e-1 -4.000000e+0
      vertex 2.942356e+0 5.852710e-1 4.000000e+0
    endloop
  endfacet
  facet normal 9.951847e-1 9.801714e-2 0.000000e+0
    outer loop
      vertex 3.000000e+0 0.000000e+0 -4.000000e+0
      vertex 2.942356e+0 5.852710e-1 4.000000e+0
      vertex 3.000000e+0 0.000000e+0 4.000000e+0
    endloop
  endfacet
  facet normal 0.000000e+0 0.000000e+0 1.000000e+0
    outer loop
      vertex 0.000000e+0 0.000000e+0 -4.000000e+0
      vertex 3.000000e+0 0.000000e+0 -4.000000e+0
      vertex 2.942356e+0 5.852710e-1 -4.000000e+0
    endloop
  endfacet
  facet normal 0.000000e+0 0.000000e+0 1.000000e+0
    outer loop
      vertex 0.000000e+0 0.000000e+0 4.000000e+0
      vertex 3.000000e+0 0.000000e+0 4.000000e+0
      vertex 2.942356e+0 5.852710e-1 4.000000e+0
    endloop
  endfacet
  facet normal 9.569403e-1 2.902847e-1 0.000000e+0
    outer loop
      vertex 2.942356e+0 5.852710e-1 -4.000000e+0
      vertex 2.771639e+0 1.148050e+0 -4.000000e+0
      vertex 2.771639e+0 1.148050e+0 4.000000e+0
    endloop
  endfacet
  facet normal 9.569403e-1 2.902847e-1 0.000000e+0
    outer loop
      vertex 2.942356e+0 5.852710e-1 -4.000000e+0
      vertex 2.771639e+0 1.148050e+0 4.000000e+0
      vertex 2.942356e+0 5.852710e-1 4.000000e+0
    endloop
  endfacet
  facet normal 0.000000e+0 0.000000e+0 1.000000e+0
    outer loop
      vertex 0.000000e+0 0.000000e+0 -4.000000e+0
      vertex 2.942356e+0 5.852710e-1 -4.000000e+0
      vertex 2.771639e+0 1.148050e+0 -4.000000e+0
    endloop
  endfacet
  facet normal 0.000000e+0 0.000000e+0 1.000000e+0
    outer loop
      vertex 0.000000e+0 0.000000e+0 4.000000e+0
      vertex 2.942356e+0 5.852710e-1 4.000000e+0
      vertex 2.771639e+0 1.148050e+0 4.000000e+0
    endloop
  endfacet
  facet normal 8.819213e-1 4.713967e-1 0.000000e+0
    outer loop
      vertex 2.771639e+0 1.148050e+0 -4.000000e+0
      vertex 2.494409e+0 1.666711e+0 -4.000000e+0
      vertex 2.494409e+0 1.666711e+0 4.000000e+0
    endloop
  endfacet
  facet normal 8.819213e-1 4.713967e-1 0.000000e+0
    outer loop
      vertex 2.771639e+0 1.148050e+0 -4.000000e+0
      vertex 2.494409e+0 1.666711e+0 4.000000e+0
      vertex 2.771639e+0 1.148050e+0 4.000000e+0
    endloop
  endfacet
  facet normal 0.000000e+0 0.000000e+0 1.000000e+0
    outer loop
      vertex 0.000000e+0 0.000000e+0 -4.000000e+0
      vertex 2.771639e+0 1.148050e+0 -4.000000e+0
      vertex 2.494409e+0 1.666711e+0 -4.000000e+0
    endloop
  endfacet
  facet normal 0.000000e+0 0.000000e+0 1.000000e+0
    outer loop
      vertex 0.000000e+0 0.000000e+0 4.000000e+0
      vertex 2.771639e+0 1.148050e+0 4.000000e+0
      vertex 2.494409e+0 1.666711e+0 4.000000e+0
    endloop
  endfacet
  facet normal 7.730105e-1 6.343933e-1 0.000000e+0
    outer loop
      vertex 2.494409e+0 1.666711e+0 -4.000000e+0
      vertex 2.121320e+0 2.121320e+0 -4.000000e+0
      vertex 2.121320e+0 2.121320e+0 4.000000e+0
    endloop
  endfacet
  facet normal 7.730105e-1 6.343933e-1 0.000000e+0
    outer loop
      vertex 2.494409e+0 1.666711e+0 -4.000000e+0
      vertex 2.121320e+0 2.121320e+0 4.000000e+0
      vertex 2.494409e+0 1.666711e+0 4.000000e+0
    endloop
  endfacet
  facet normal 0.000000e+0 0.000000e+0 1.000000e+0
    outer loop
      vertex 0.000000e+0 0.000000e+0 -4.000000e+0
      vertex 2.494409e+0 1.666711e+0 -4.000000e+0
      vertex 2.121320e+0 2.121320e+0 -4.000000e+0
    endloop
  endfacet
  facet normal 0.000000e+0 0.000000e+0 1.000000e+0
    outer loop
      vertex 0.000000e+0 0.000000e+0 4.000000e+0
      vertex 2.494409e+0 1.666711e+0 4.000000e+0
      vertex 2.121320e+0 2.121320e+0 4.000000e+0
    endloop
  endfacet
  facet normal 6.343933e-1 7.730105e-1 0.000000e+0
    outer loop
      vertex 2.121320e+0 2.121320e+0 -4.000000e+0
      vertex 1.666711e+0 2.494409e+0 -4.000000e+0
      vertex 1.666711e+0 2.494409e+0 4.000000e+0
    endloop
  endfacet
  facet normal 6.343933e-1 7.730105e-1 0.000000e+0
    outer loop
      vertex 2.121320e+0 2.121320e+0 -4.000000e+0
      vertex 1.666711e+0 2.494409e+0 4.000000e+0
      vertex 2.121320e+0 2.121320e+0 4.000000e+0
    endloop
  endfacet
  facet normal 0.000000e+0 0.000000e+0 1.000000e+0
    outer loop
      vertex 0.000000e+0 0.000000e+0 -4.000000e+0
      vertex 2.121320e+0 2.121320e+0 -4.000000e+0
      vertex 1.666711e+0 2.494409e+0 -4.000000e+0
    endloop
  endfacet
  facet normal 0.000000e+0 0.000000e+0 1.000000e+0
    outer loop
      vertex 0.000000e+0 0.000000e+0 4.000000e+0
      vertex 2.121320e+0 2.121320e+0 4.000000e+0
      vertex 1.666711e+0 2.494409e+0 4.000000e+0
    endloop
  endfacet
  facet normal 4.713967e-1 8.819213e-1 0.000000e+0
    outer loop
      vertex 1.666711e+0 2.494409e+0 -4.000000e+0
      vertex 1.148050e+0 2.771639e+0 -4.000000e+0
      vertex 1.148050e+0 2.771639e+0 4.000000e+0
    endloop
  endfacet
  facet normal 4.713967e-1 8.819213e-1 0.000000e+0
    outer loop
      vertex 1.666711e+0 2.494409e+0 -4.000000e+0
      vertex 1.148050e+0 2.771639e+0 4.000000e+0
      vertex 1.666711e+0 2.494409e+0 4.000000e+0
    endloop
  endfacet
  facet normal 0.000000e+0 0.000000e+0 1.000000e+0
    outer loop
      vertex 0.000000e+0 0.000000e+0 -4.000000e+0
      vertex 1.666711e+0 2.494409e+0 -4.000000e+0
      vertex 1.148050e+0 2.771639e+0 -4.000000e+0
    endloop
  endfacet
  facet normal 0.000000e+0 0.000000e+0 1.000000e+0
    outer loop
      vertex 0.000000e+0 0.000000e+0 4.000000e+0
      vertex 1.666711e+0 2.494409e+0 4.000000e+0
      vertex 1.148050e+0 2.771639e+0 4.000000e+0
    endloop
  endfacet
  facet normal 2.902847e-1 9.569403e-1 0.000000e+0
    outer loop
      vertex 1.148050e+0 2.771639e+0 -4.000000e+0
      vertex 5.852710e-1 2.942356e+0 -4.000000e+0
      vertex 5.852710e-1 2.942356e+0 4.000000e+0
    endloop
  endfacet
  facet normal 2.902847e-1 9.569403e-1 0.000000e+0
    outer loop
      vertex 1.148050e+0 2.771639e+0 -4.000000e+0
      vertex 5.852710e-1 2.942356e+0 4.000000e+0
      vertex 1.148050e+0 2.771639e+0 4.000000e+0
    endloop
  endfacet
  facet normal 0.000000e+0 0.000000e+0 1.000000e+0
    outer loop
      vertex 0.000000e+0 0.000000e+0 -4.000000e+0
      vertex 1.148050e+0 2.771639e+0 -4.000000e+0
      vertex 5.852710e-1 2.942356e+0 -4.000000e+0
    endloop
  endfacet
  facet normal 0.000000e+0 0.000000e+0 1.000000e+0
    outer loop
      vertex 0.000000e+0 0.000000e+0 4.000000e+0
      vertex 1.148050e+0 2.771639e+0 4.000000e+0
      vertex 5.852710e-1 2.942356e+0 4.000000e+0
    endloop
  endfacet
  facet normal 9.801714e-2 9.951847e-1 0.000000e+0
    outer loop
      vertex 5.852710e-1 2.942356e+0 -4.000000e+0
      vertex 1.836970e-16 3.000000e+0 -4.000000e+0
      vertex 1.836970e-16 3.000000e+0 4.000000e+0
    endloop
  endfacet
  facet normal 9.801714e-2 9.951847e-1 0.000000e+0
    outer loop
      vertex 5.852710e-1 2.942356e+0 -4.000000e+0
      vertex 1.836970e-16 3.000000e+0 4.000000e+0
      vertex 5.852710e-1 2.942356e+0 4.000000e+0
    endloop
  endfacet
  facet normal 0.000000e+0 0.000000e+0 1.000000e+0
    outer loop
      vertex 0.000000e+0 0.000000e+0 -4.000000e+0
      vertex 5.852710e-1 2.942356e+0 -4.000000e+0
      vertex 1.836970e-16 3.000000e+0 -4.000000e+0
    endloop
  endfacet
  facet normal 0.000000e+0 0.000000e+0 1.000000e+0
    outer loop
      vertex 0.000000e+0 0.000000e+0 4.000000e+0
      vertex 5.852710e-1 2.942356e+0 4.000000e+0
      vertex 1.836970e-16 3.000000e+0 4.000000e+0
    endloop
  endfacet
  facet normal -9.801714e-2 9.951847e-1 0.000000e+0
    outer loop
      vertex 1.836970e-16 3.000000e+0 -4.000000e+0
      vertex -5.852710e-1 2.942356e+0 -4.000000e+0
      vertex -5.852710e-1 2.942356e+0 4.000000e+0
    endloop
  endfacet
  facet normal -9.801714e-2 9.951847e-1 0.000000e+0
    outer loop
      vertex 1.836970e-16 3.000000e+0 -4.000000e+0
      vertex -5.852710e-1 2.942356e+0 4.000000e+0
      vertex 1.836970e-16 3.000000e+0 4.000000e+0
    endloop
  endfacet
  facet normal 0.000000e+0 0.000000e+0 1.000000e+0
    outer loop
      vertex 0.000000e+0 0.000000e+0 -4.000000e+0
      vertex 1.836970e-16 3.000000e+0 -4.000000e+0
      vertex -5.852710e-1 2.942356e+0 -4.000000e+0
    endloop
  endfacet
  facet normal 0.000000e+0 0.000000e+0 1.000000e+0
    outer loop
      vertex 0.000000e+0 0.000000e+0 4.000000e+0
      vertex 1.836970e-16 3.000000e+0 4.000000e+0
      vertex -5.852710e-1 2.942356e+0 4.000000e+0
    endloop
  endfacet
  facet normal -2.902847e-1 9.569403e-1 0.000000e+0
    outer loop
      vertex -5.852710e-1 2.942356e+0 -4.000000e+0
      vertex -1.148050e+0 2.771639e+0 -4.000000e+0
      vertex -1.148050e+0 2.771639e+0 4.000000e+0
    endloop
  endfacet
  facet normal -2.902847e-1 9.569403e-1 0.000000e+0
    outer loop
      vertex -5.852710e-1 2.942356e+0 -4.000000e+0
      vertex -1.148050e+0 2.771639e+0 4.000000e+0
      vertex -5.852710e-1 2.942356e+0 4.000000e+0
    endloop
  endfacet
  facet normal 0.000000e+0 0.000000e+0 1.000000e+0
    outer loop
      vertex 0.000000e+0 0.000000e+0 -4.000000e+0
      vertex -5.852710e-1 2.942356e+0 -4.000000e+0
      vertex -1.148050e+0 2.771639e+0 -4.000000e+0
    endloop
  endfacet
  facet normal 0.000000e+0 0.000000e+0 1.000000e+0
    outer loop
      vertex 0.000000e+0 0.000000e+0 4.000000e+0
      vertex -5.852710e-1 2.942356e+0 4.000000e+0
      vertex -1.148050e+0 2.771639e+0 4.000000e+0
    endloop
  endfacet
  facet normal -4.713967e-1 8.819213e-1 0.000000e+0
    outer loop
      vertex -1.148050e+0 2.771639e+0 -4.000000e+0
      vertex -1.666711e+0 2.494409e+0 -4.000000e+0
      vertex -1.666711e+0 2.494409e+0 4.000000e+0
    endloop
  endfacet
  facet normal -4.713967e-1 8.819213e-1 0.000000e+0
    outer loop
      vertex -1.148050e+0 2.771639e+0 -4.000000e+0
      vertex -1.666711e+0 2.494409e+0 4.000000e+0
      vertex -1.148050e+0 2.771639e+0 4.000000e+0
    endloop
  endfacet
  facet normal 0.000000e+0 0.000000e+0 1.000000e+0
    outer loop
      vertex 0.000000e+0 0.000000e+0 -4.000000e+0
      vertex -1.148050e+0 2.771639e+0 -4.000000e+0
      vertex -1.666711e+0 2.494409e+0 -4.000000e+0
    endloop
  endfacet
  facet normal 0.000000e+0 0.000000e+0 1.000000e+0
    outer loop
      vertex 0.000000e+0 0.000000e+0 4.000000e+0
      vertex -1.148050e+0 2.771639e+0 4.000000e+0
      vertex -1.666711e+0 2.494409e+0 4.000000e+0
    endloop
  endfacet
  facet normal -6.343933e-1 7.730105e-1 0.000000e+0
    outer loop
      vertex -1.666711e+0 2.494409e+0 -4.000000e+0
      vertex -2.121320e+0 2.121320e+0 -4.000000e+0
      vertex -2.121320e+0 2.121320e+0 4.000000e+0
    endloop
  endfacet
  facet normal -6.343933e-1 7.730105e-1 0.000000e+0
    outer loop
      vertex -1.666711e+0 2.494409e+0 -4.000000e+0
      vertex -2.121320e+0 2.121320e+0 4.000000e+0
      vertex -1.666711e+0 2.494409e+0 4.000000e+0
    endloop
  endfacet
  facet normal 0.000000e+0 0.000000e+0 1.000000e+0
    outer loop
      vertex 0.000000e+0 0.000000e+0 -4.000000e+0
      vertex -1.666711e+0 2.494409e+0 -4.000000e+0
      vertex -2.121320e+0 2.121320e+0 -4.000000e+0
    endloop
  endfacet
  facet normal 0.000000e+0 0.000000e+0 1.000000e+0
    outer loop
      vertex 0.000000e+0 0.000000e+0 4.000000e+0
      vertex -1.666711e+0 2.494409e+0 4.000000e+0
      vertex -2.121320e+0 2.121320e+0 4.000000e+0
    endloop
  endfacet
  facet normal -7.730105e-1 6.343933e-1 0.000000e+0
    outer loop
      vertex -2.121320e+0 2.121320e+0 -4.000000e+0
      vertex -2.494409e+0 1.666711e+0 -4.000000e+0
      vertex -2.494409e+0 1.666711e+0 4.000000e+0
    endloop
  endfacet
  facet normal -7.730105e-1 6.343933e-1 0.000000e+0
    outer loop
      vertex -2.121320e+0 2.121320e+0 -4.000000e+0
      vertex -2.494409e+0 1.666711e+0 4.000000e+0
      vertex -2.121320e+0 2.121320e+0 4.000000e+0
    endloop
  endfacet
  facet normal 0.000000e+0 0.000000e+0 1.000000e+0
    outer loop
      vertex 0.000000e+0 0.000000e+0 -4.000000e+0
      vertex -2.121320e+0 2.121320e+0 -4.000000e+0
      vertex -2.494409e+0 1.666711e+0 -4.000000e+0
    endloop
  endfacet
  facet normal 0.000000e+0 0.000000e+0 1.000000e+0
    outer loop
      vertex 0.000000e+0 0.000000e+0 4.000000e+0
      vertex -2.121320e+0 2.121320e+0 4.000000e+0
      vertex -2.494409e+0 1.666711e+0 4.000000e+0
    endloop
  endfacet
  facet normal -8.819213e-1 4.713967e-1 0.000000e+0
    outer loop
      vertex -2.494409e+0 1.666711e+0 -4.000000e+0
      vertex -2.771639e+0 1.148050e+0 -4.000000e+0
      vertex -2.771639e+0 1.148050e+0 4.000000e+0
    endloop
  endfacet
  facet normal -8.819213e-1 4.713967e-1 0.000000e+0
    outer loop
      vertex -2.494409e+0 1.666711e+0 -4.000000e+0
      vertex -2.771639e+0 1.148050e+0 4.000000e+0
      vertex -2.494409e+0 1.666711e+0 4.000000e+0
    endloop
  endfacet
  facet normal 0.000000e+0 0.000000e+0 1.000000e+0
    outer loop
      vertex 0.000000e+0 0.000000e+0 -4.000000e+0
      vertex -2.494409e+0 1.666711e+0 -4.000000e+0
      vertex -2.771639e+0 1.148050e+0 -4.000000e+0
    endloop
  endfacet
  facet normal 0.000000e+0 0.000000e+0 1.000000e+0
    outer loop
      vertex 0.000000e+0 0.000000e+0 4.000000e+0
      vertex -2.494409e+0 1.666711e+0 4.000000e+0
      vertex -2.771639e+0 1.148050e+0 4.000000e+0
    endloop
  endfacet
  facet normal -9.569403e-1 2.902847e-1 0.000000e+0
    outer loop
      vertex -2.771639e+0 1.148050e+0 -4.000000e+0
      vertex -2.942356e+0 5.852710e-1 -4.000000e+0
      vertex -2.942356e+0 5.852710e-1 4.000000e+0
    endloop
  endfacet
  facet normal -9.569403e-1 2.902847e-1 0.000000e+0
    outer loop
      vertex -2.771639e+0 1.148050e+0 -4.000000e+0
      vertex -2.942356e+0 5.852710e-1 4.000000e+0
      vertex -2.771639e+0 1.148050e+0 4.000000e+0
    endloop
  endfacet
  facet normal 0.000000e+0 0.000000e+0 1.000000e+0
    outer loop
      vertex 0.000000e+0 0.000000e+0 -4.000000e+0
      vertex -2.771639e+0 1.148050e+0 -4.000000e+0
      vertex -2.942356e+0 5.852710e-1 -4.000000e+0
    endloop
  endfacet
  facet normal 0.000000e+0 0.000000e+0 1.000000e+0
    outer loop
      vertex 0.000000e+0 0.000000e+0 4.000000e+0
      vertex -2.771639e+0 1.148050e+0 4.000000e+0
      vertex -2.942356e+0 5.852710e-1 4.000000e+0
    endloop
  endfacet
  facet normal -9.951847e-1 9.801714e-2 0.000000e+0
    outer loop
      vertex -2.942356e+0 5.852710e-1 -4.000000e+0
      vertex -3.000000e+0 3.673940e-16 -4.000000e+0
      vertex -3.000000e+0 3.673940e-16 4.000000e+0
    endloop
  endfacet
  facet normal -9.951847e-1 9.801714e-2 0.000000e+0
    outer loop
      vertex -2.942356e+0 5.852710e-1 -4.000000e+0
      vertex -3.000000e+0 3.673940e-16 4.000000e+0
      vertex -2.942356e+0 5.852710e-1 4.000000e+0
    endloop
  endfacet
  facet normal 0.000000e+0 0.000000e+0 1.000000e+0
    outer loop
      vertex 0.000000e+0 0.000000e+0 -4.000000e+0
      vertex -2.942356e+0 5.852710e-1 -4.000000e+0
      vertex -3.000000e+0 3.673940e-16 -4.000000e+0
    endloop
  endfacet
  facet normal 0.000000e+0 0.000000e+0 1.000000e+0
    outer loop
      vertex 0.000000e+0 0.000000e+0 4.000000e+0
      vertex -2.942356e+0 5.852710e-1 4.000000e+0
      vertex -3.000000e+0 3.673940e-16 4.000000e+0
    endloop
  endfacet
  facet normal -9.951847e-1 -9.801714e-2 0.000000e+0
    outer loop
      vertex -3.000000e+0 3.673940e-16 -4.000000e+0
      vertex -2.942356e+0 -5.852710e-1 -4.000000e+0
      vertex -2.942356e+0 -5.852710e-1 4.000000e+0
    endloop
  endfacet
  facet normal -9.951847e-1 -9.801714e-2 0.000000e+0
    outer loop
      vertex -3.000000e+0 3.673940e-16 -4.000000e+0
      vertex -2.942356e+0 -5.852710e-1 4.000000e+0
      vertex -3.000000e+0 3.673940e-16 4.000000e+0
    endloop
  endfacet
  facet normal 0.000000e+0 0.000000e+0 1.000000e+0
    outer loop
      vertex 0.000000e+0 0.000000e+0 -4.000000e+0
      vertex -3.000000e+0 3.673940e-16 -4.000000e+0
      vertex -2.942356e+0 -5.852710e-1 -4.000000e+0
    endloop
  endfacet
  facet normal 0.000000e+0 0.000000e+0 1.000000e+0
    outer loop
      vertex 0.000000e+0 0.000000e+0 4.000000e+0
      vertex -3.000000e+0 3.673940e-16 4.000000e+0
      vertex -2.942356e+0 -5.852710e-1 4.000000e+0
    endloop
  endfacet
  facet normal -9.569403e-1 -2.902847e-1 0.000000e+0
    outer loop
      vertex -2.942356e+0 -5.852710e-1 -4.000000e+0
      vertex -2.771639e+0 -1.148050e+0 -4.000000e+0
      vertex -2.771639e+0 -1.148050e+0 4.000000e+0
    endloop
  endfacet
  facet normal -9.569403e-1 -2.902847e-1 0.000000e+0
    outer loop
      vertex -2.942356e+0 -5.852710e-1 -4.000000e+0
      vertex -2.771639e+0 -1.148050e+0 4.000000e+0
      vertex -2.942356e+0 -5.852710e-1 4.000000e+0
    endloop
  endfacet
  facet normal 0.000000e+0 0.000000e+0 1.000000e+0
    outer loop
      vertex 0.000000e+0 0.000000e+0 -4.000000e+0
      vertex -2.942356e+0 -5.852710e-1 -4.000000e+0
      vertex -2.771639e+0 -1.148050e+0 -4.000000e+0
    endloop
  endfacet
  facet normal 0.000000e+0 0.000000e+0 1.000000e+0
    outer loop
      vertex 0.000000e+0 0.000000e+0 4.000000e+0
      vertex -2.942356e+0 -5.852710e-1 4.000000e+0
      vertex -2.771639e+0 -1.148050e+0 4.000000e+0
    endloop
  endfacet
  facet normal -8.819213e-1 -4.713967e-1 0.000000e+0
    outer loop
      vertex -2.771639e+0 -1.148050e+0 -4.000000e+0
      vertex -2.494409e+0 -1.666711e+0 -4.000000e+0
      vertex -2.494409e+0 -1.666711e+0 4.000000e+0
    endloop
  endfacet
  facet normal -8.819213e-1 -4.713967e-1 0.000000e+0
    outer loop
      vertex -2.771639e+0 -1.148050e+0 -4.000000e+0
      vertex -2.494409e+0 -1.666711e+0 4.000000e+0
      vertex -2.771639e+0 -1.148050e+0 4.000000e+0
    endloop
  endfacet
  facet normal 0.000000e+0 0.000000e+0 1.000000e+0
    outer loop
      vertex 0.000000e+0 0.000000e+0 -4.000000e+0
      vertex -2.771639e+0 -1.148050e+0 -4.000000e+0
      vertex -2.494409e+0 -1.666711e+0 -4.000000e+0
    endloop
  endfacet
  facet normal 0.000000e+0 0.000000e+0 1.000000e+0
    outer loop
      vertex 0.000000e+0 0.000000e+0 4.000000e+0
      vertex -2.771639e+0 -1.148050e+0 4.000000e+0
      vertex -2.494409e+0 -1.666711e+0 4.000000e+0
    endloop
  endfacet
  facet normal -7.730105e-1 -6.343933e-1 0.000000e+0
    outer loop
      vertex -2.494409e+0 -1.666711e+0 -4.000000e+0
      vertex -2.121320e+0 -2.121320e+0 -4.000000e+0
      vertex -2.121320e+0 -2.121320e+0 4.000000e+0
    endloop
  endfacet
  facet normal -7.730105e-1 -6.343933e-1 0.000000e+0
    outer loop
      vertex -2.494409e+0 -1.666711e+0 -4.000000e+0
      vertex -2.121320e+0 -2.121320e+0 4.000000e+0
      vertex -2.494409e+0 -1.666711e+0 4.000000e+0
    endloop
  endfacet
  facet normal 0.000000e+0 0.000000e+0 1.000000e+0
    outer loop
      vertex 0.000000e+0 0.000000e+0 -4.000000e+0
      vertex -2.494409e+0 -1.666711e+0 -4.000000e+0
      vertex -2.121320e+0 -2.121320e+0 -4.000000e+0
    endloop
  endfacet
  facet normal 0.000000e+0 0.000000e+0 1.000000e+0
    outer loop
      vertex 0.000000e+0 0.000000e+0 4.000000e+0
      vertex -2.494409e+0 -1.666711e+0 4.000000e+0
      vertex -2.121320e+0 -2.121320e+0 4.000000e+0
    endloop
  endfacet
  facet normal -6.343933e-1 -7.730105e-1 0.000000e+0
    outer loop
      vertex -2.121320e+0 -2.121320e+0 -4.000000e+0
      vertex -1.666711e+0 -2.494409e+0 -4.000000e+0
      vertex -1.666711e+0 -2.494409e+0 4.000000e+0
    endloop
  endfacet
  facet normal -6.343933e-1 -7.730105e-1 0.000000e+0
    outer loop
      vertex -2.121320e+0 -2.121320e+0 -4.000000e+0
      vertex -1.666711e+0 -2.494409e+0 4.000000e+0
      vertex -2.121320e+0 -2.121320e+0 4.000000e+0
    endloop
  endfacet
  facet normal 0.000000e+0 0.000000e+0 1.000000e+0
    outer loop
      vertex 0.000000e+0 0.000000e+0 -4.000000e+0
      vertex -2.121320e+0 -2.121320e+0 -4.000000e+0
      vertex -1.666711e+0 -2.494409e+0 -4.000000e+0
    endloop
  endfacet
  facet normal 0.000000e+0 0.000000e+0 1.000000e+0
    outer loop
      vertex 0.000000e+0 0.000000e+0 4.000000e+0
      vertex -2.121320e+0 -2.121320e+0 4.000000e+0
      vertex -1.666711e+0 -2.494409e+0 4.000000e+0
    endloop
  endfacet
  facet normal -4.713967e-1 -8.819213e-1 0.000000e+0
    outer loop
      vertex -1.666711e+0 -2.494409e+0 -4.000000e+0
      vertex -1.148050e+0 -2.771639e+0 -4.000000e+0
      vertex -1.148050e+0 -2.771639e+0 4.000000e+0
    endloop
  endfacet
  facet normal -4.713967e-1 -8.819213e-1 0.000000e+0
    outer loop
      vertex -1.666711e+0 -2.494409e+0 -4.000000e+0
      vertex -1.148050e+0 -2.771639e+0 4.000000e+0
      vertex -1.666711e+0 -2.494409e+0 4.000000e+0
    endloop
  endfacet
  facet normal 0.000000e+0 0.000000e+0 1.000000e+0
    outer loop
      vertex 0.000000e+0 0.000000e+0 -4.000000e+0
      vertex -1.666711e+0 -2.494409e+0 -4.000000e+0
      vertex -1.148050e+0 -2.771639e+0 -4.000000e+0
    endloop
  endfacet
  facet normal 0.000000e+0 0.000000e+0 1.000000e+0
    outer loop
      vertex 0.000000e+0 0.000000e+0 4.000000e+0
      vertex -1.666711e+0 -2.494409e+0 4.000000e+0
      vertex -1.148050e+0 -2.771639e+0 4.000000e+0
    endloop
  endfacet
  facet normal -2.902847e-1 -9.569403e-1 0.000000e+0
    outer loop
      vertex -1.148050e+0 -2.771639e+0 -4.000000e+0
      vertex -5.852710e-1 -2.942356e+0 -4.000000e+0
      vertex -5.852710e-1 -2.942356e+0 4.000000e+0
    endloop
  endfacet
  facet normal -2.902847e-1 -9.569403e-1 0.000000e+0
    outer loop
      vertex -1.148050e+0 -2.771639e+0 -4.000000e+0
      vertex -5.852710e-1 -2.942356e+0 4.000000e+0
      vertex -1.148050e+0 -2.771639e+0 4.000000e+0
    endloop
  endfacet
  facet normal 0.000000e+0 0.000000e+0 1.000000e+0
    outer loop
      vertex 0.000000e+0 0.000000e+0 -4.000000e+0
      vertex -1.148050e+0 -2.771639e+0 -4.000000e+0
      vertex -5.852710e-1 -2.942356e+0 -4.000000e+0
    endloop
  endfacet
  facet normal 0.000000e+0 0.000000e+0 1.000000e+0
    outer loop
      vertex 0.000000e+0 0.000000e+0 4.000000e+0
      vertex -1.148050e+0 -2.771639e+0 4.000000e+0
      vertex -5.852710e-1 -2.942356e+0 4.000000e+0
    endloop
  endfacet
  facet normal -9.801714e-2 -9.951847e-1 0.000000e+0
    outer loop
      vertex -5.852710e-1 -2.942356e+0 -4.000000e+0
      vertex -5.510911e-16 -3.000000e+0 -4.000000e+0
      vertex -5.510911e-16 -3.000000e+0 4.000000e+0
    endloop
  endfacet
  facet normal -9.801714e-2 -9.951847e-1 0.000000e+0
    outer loop
      vertex -5.852710e-1 -2.942356e+0 -4.000000e+0
      vertex -5.510911e-16 -3.000000e+0 4.000000e+0
      vertex -5.852710e-1 -2.942356e+0 4.000000e+0
    endloop
  endfacet
  facet normal 0.000000e+0 0.000000e+0 1.000000e+0
    outer loop
      vertex 0.000000e+0 0.000000e+0 -4.000000e+0
      vertex -5.852710e-1 -2.942356e+0 -4.000000e+0
      vertex -5.510911e-16 -3.000000e+0 -4.000000e+0
    endloop
  endfacet
  facet normal 0.000000e+0 0.000000e+0 1.000000e+0
    outer loop
      vertex 0.000000e+0 0.000000e+0 4.000000e+0
      vertex -5.852710e-1 -2.942356e+0 4.000000e+0
      vertex -5.510911e-16 -3.000000e+0 4.000000e+0
    endloop
  endfacet
  facet normal 9.801714e-2 -9.951847e-1 0.000000e+0
    outer loop
      vertex -5.510911e-16 -3.000000e+0 -4.000000e+0
      vertex 5.852710e-1 -2.942356e+0 -4.000000e+0
      vertex 5.852710e-1 -2.942356e+0 4.000000e+0
    endloop
  endfacet
  facet normal 9.801714e-2 -9.951847e-1 0.000000e+0
    outer loop
      vertex -5.510911e-16 -3.000000e+0 -4.000000e+0
      vertex 5.852710e-1 -2.942356e+0 4.000000e+0
      vertex -5.510911e-16 -3.000000e+0 4.000000e+0
    endloop
  endfacet
  facet normal 0.000000e+0 0.000000e+0 1.000000e+0
    outer loop
      vertex 0.000000e+0 0.000000e+0 -4.000000e+0
      vertex -5.510911e-16 -3.000000e+0 -4.000000e+0
      vertex 5.852710e-1 -2.942356e+0 -4.000000e+0
    endloop
  endfacet
  facet normal 0.000000e+0 0.000000e+0 1.000000e+0
    outer loop
      vertex 0.000000e+0 0.000000e+0 4.000000e+0
      vertex -5.510911e-16 -3.000000e+0 4.000000e+0
      vertex 5.852710e-1 -2.942356e+0 4.000000e+0
    endloop
  endfacet
  facet normal 2.902847e-1 -9.569403e-1 0.000000e+0
    outer loop
      vertex 5.852710e-1 -2.942356e+0 -4.000000e+0
      vertex 1.148050e+0 -2.771639e+0 -4.000000e+0
      vertex 1.148050e+0 -2.771639e+0 4.000000e+0
    endloop
  endfacet
  facet normal 2.902847e-1 -9.569403e-1 0.000000e+0
    outer loop
      vertex 5.852710e-1 -2.942356e+0 -4.000000e+0
      vertex 1.148050e+0 -2.771639e+0 4.000000e+0
      vertex 5.852710e-1 -2.942356e+0 4.000000e+0
    endloop
  endfacet
  facet normal 0.000000e+0 0.000000e+0 1.000000e+0
    outer loop
      vertex 0.000000e+0 0.000000e+0 -4.000000e+0
      vertex 5.852710e-1 -2.942356e+0 -4.000000e+0
      vertex 1.148050e+0 -2.771639e+0 -4.000000e+0
    endloop
  endfacet
  facet normal 0.000000e+0 0.000000e+0 1.000000e+0
    outer loop
      vertex 0.000000e+0 0.000000e+0 4.000000e+0
      vertex 5.852710e-1 -2.942356e+0 4.000000e+0
      vertex 1.148050e+0 -2.771639e+0 4.000000e+0
    endloop
  endfacet
  facet normal 4.713967e-1 -8.819213e-1 0.000000e+0
    outer loop
      vertex 1.148050e+0 -2.771639e+0 -4.000000e+0
      vertex 1.666711e+0 -2.494409e+0 -4.000000e+0
      vertex 1.666711e+0 -2.494409e+0 4.000000e+0
    endloop
  endfacet
  facet normal 4.713967e-1 -8.819213e-1 0.000000e+0
    outer loop
      vertex 1.148050e+0 -2.771639e+0 -4.000000e+0
      vertex 1.666711e+0 -2.494409e+0 4.000000e+0
      vertex 1.148050e+0 -2.771639e+0 4.000000e+0
    endloop
  endfacet
  facet normal 0.000000e+0 0.000000e+0 1.000000e+0
    outer loop
      vertex 0.000000e+0 0.000000e+0 -4.000000e+0
      vertex 1.148050e+0 -2.771639e+0 -4.000000e+0
      vertex 1.666711e+0 -2.494409e+0 -4.000000e+0
    endloop
  endfacet
  facet normal 0.000000e+0 0.000000e+0 1.000000e+0
    outer loop
      vertex 0.000000e+0 0.000000e+0 4.000000e+0
      vertex 1.148050e+0 -2.771639e+0 4.000000e+0
      vertex 1.666711e+0 -2.494409e+0 4.000000e+0
    endloop
  endfacet
  facet normal 6.343933e-1 -7.730105e-1 0.000000e+0
    outer loop
      vertex 1.666711e+0 -2.494409e+0 -4.000000e+0
      vertex 2.121320e+0 -2.121320e+0 -4.000000e+0
      vertex 2.121320e+0 -2.121320e+0 4.000000e+0
    endloop
  endfacet
  facet normal 6.343933e-1 -7.730105e-1 0.000000e+0
    outer loop
      vertex 1.666711e+0 -2.494409e+0 -4.000000e+0
      vertex 2.121320e+0 -2.121320e+0 4.000000e+0
      vertex 1.666711e+0 -2.494409e+0 4.000000e+0
    endloop
  endfacet
  facet normal 0.000000e+0 0.000000e+0 1.000000e+0
    outer loop
      vertex 0.000000e+0 0.000000e+0 -4.000000e+0
      vertex 1.666711e+0 -2.494409e+0 -4.000000e+0
      vertex 2.121320e+0 -2.121320e+0 -4.000000e+0
    endloop
  endfacet
  facet normal 0.000000e+0 0.000000e+0 1.000000e+0
    outer loop
      vertex 0.000000e+0 0.000000e+0 4.000000e+0
      vertex 1.666711e+0 -2.494409e+0 4.000000e+0
      vertex 2.121320e+0 -2.121320e+0 4.000000e+0
    endloop
  endfacet
  facet normal 7.730105e-1 -6.343933e-1 0.000000e+0
    outer loop
      vertex 2.121320e+0 -2.121320e+0 -4.000000e+0
      vertex 2.494409e+0 -1.666711e+0 -4.000000e+0
      vertex 2.494409e+0 -1.666711e+0 4.000000e+0
    endloop
  endfacet
  facet normal 7.730105e-1 -6.343933e-1 0.000000e+0
    outer loop
      vertex 2.121320e+0 -2.121320e+0 -4.000000e+0
      vertex 2.494409e+0 -1.666711e+0 4.000000e+0
      vertex 2.121320e+0 -2.121320e+0 4.000000e+0
    endloop
  endfacet
  facet normal 0.000000e+0 0.000000e+0 1.000000e+0
    outer loop
      vertex 0.000000e+0 0.000000e+0 -4.000000e+0
      vertex 2.121320e+0 -2.121320e+0 -4.000000e+0
      vertex 2.494409e+0 -1.666711e+0 -4.000000e+0
    endloop
  endfacet
  facet normal 0.000000e+0 0.000000e+0 1.000000e+0
    outer loop
      vertex 0.000000e+0 0.000000e+0 4.000000e+0
      vertex 2.121320e+0 -2.121320e+0 4.000000e+0
      vertex 2.494409e+0 -1.666711e+0 4.000000e+0
    endloop
  endfacet
  facet normal 8.819213e-1 -4.713967e-1 0.000000e+0
    outer loop
      vertex 2.494409e+0 -1.666711e+0 -4.000000e+0
      vertex 2.771639e+0 -1.148050e+0 -4.000000e+0
      vertex 2.771639e+0 -1.148050e+0 4.000000e+0
    endloop
  endfacet
  facet normal 8.819213e-1 -4.713967e-1 0.000000e+0
    outer loop
      vertex 2.494409e+0 -1.666711e+0 -4.000000e+0
      vertex 2.771639e+0 -1.148050e+0 4.000000e+0
      vertex 2.494409e+0 -1.666711e+0 4.000000e+0
    endloop
  endfacet
  facet normal 0.000000e+0 0.000000e+0 1.000000e+0
    outer loop
      vertex 0.000000e+0 0.000000e+0 -4.000000e+0
      vertex 2.494409e+0 -1.666711e+0 -4.000000e+0
      vertex 2.771639e+0 -1.148050e+0 -4.000000e+0
    endloop
  endfacet
  facet normal 0.000000e+0 0.000000e+0 1.000000e+0
    outer loop
      vertex 0.000000e+0 0.000000e+0 4.000000e+0
      vertex 2.494409e+0 -1.666711e+0 4.000000e+0
      vertex 2.771639e+0 -1.148050e+0 4.000000e+0
    endloop
  endfacet
  facet normal 9.569403e-1 -2.902847e-1 0.000000e+0
    outer loop
      vertex 2.771639e+0 -1.148050e+0 -4.000000e+0
      vertex 2.942356e+0 -5.852710e-1 -4.000000e+0
      vertex 2.942356e+0 -5.852710e-1 4.000000e+0
    endloop
  endfacet
  facet normal 9.569403e-1 -2.902847e-1 0.000000e+0
    outer loop
      vertex 2.771639e+0 -1.148050e+0 -4.000000e+0
      vertex 2.942356e+0 -5.852710e-1 4.000000e+0
      vertex 2.771639e+0 -1.148050e+0 4.000000e+0
    endloop
  endfacet
  facet normal 0.000000e+0 0.000000e+0 1.000000e+0
    outer loop
      vertex 0.000000e+0 0.000000e+0 -4.000000e+0
      vertex 2.771639e+0 -1.148050e+0 -4.000000e+0
      vertex 2.942356e+0 -5.852710e-1 -4.000000e+0
    endloop
  endfacet
  facet normal 0.000000e+0 0.000000e+0 1.000000e+0
    outer loop
      vertex 0.000000e+0 0.000000e+0 4.000000e+0
      vertex 2.771639e+0 -1.148050e+0 4.000000e+0
      vertex 2.942356e+0 -5.852710e-1 4.000000e+0
    endloop
  endfacet
  facet normal 9.951847e-1 -9.801714e-2 0.000000e+0
    outer loop
      vertex 2.942356e+0 -5.852710e-1 -4.000000e+0
      vertex 3.000000e+0 0.000000e+0 -4.000000e+0
      vertex 3.000000e+0 0.000000e+0 4.000000e+0
    endloop
  endfacet
  facet normal 9.951847e-1 -9.801714e-2 0.000000e+0
    outer loop
      vertex 2.942356e+0 -5.852710e-1 -4.000000e+0
      vertex 3.000000e+0 0.000000e+0 4.000000e+0
      vertex 2.942356e+0 -5.852710e-1 4.000000e+0
    endloop
  endfacet
  facet normal 0.000000e+0 0.000000e+0 1.000000e+0
    outer loop
      vertex 0.000000e+0 0.000000e+0 -4.000000e+0
      vertex 2.942356e+0 -5.852710e-1 -4.000000e+0
      vertex 3.000000e+0 0.000000e+0 -4.000000e+0
    endloop
  endfacet
  facet normal 0.000000e+0 0.000000e+0 1.000000e+0
    outer loop
      vertex 0.000000e+0 0.000000e+0 4.000000e+0
      vertex 2.942356e+0 -5.852710e-1 4.000000e+0
      vertex 3.000000e+0 0.000000e+0 4.000000e+0
    endloop
  endfacet
endsolid GeneratedModel
