solid GeneratedModel
  facet normal 9.951847e-1 9.801714e-2 0.000000e+0
    outer loop
      vertex 4.000000e+0 0.000000e+0 -6.000000e+0
      vertex 3.923141e+0 7.803613e-1 -6.000000e+0
      vertex 3.923141e+0 7.803613e-1 6.000000e+0
    endloop
  endfacet
  facet normal 9.951847e-1 9.801714e-2 0.000000e+0
    outer loop
      vertex 4.000000e+0 0.000000e+0 -6.000000e+0
      vertex 3.923141e+0 7.803613e-1 6.000000e+0
      vertex 4.000000e+0 0.000000e+0 6.000000e+0
    endloop
  endfacet
  facet normal 0.000000e+0 0.000000e+0 1.000000e+0
    outer loop
      vertex 0.000000e+0 0.000000e+0 -6.000000e+0
      vertex 4.000000e+0 0.000000e+0 -6.000000e+0
      vertex 3.923141e+0 7.803613e-1 -6.000000e+0
    endloop
  endfacet
  facet normal 0.000000e+0 0.000000e+0 1.000000e+0
    outer loop
      vertex 0.000000e+0 0.000000e+0 6.000000e+0
      vertex 4.000000e+0 0.000000e+0 6.000000e+0
      vertex 3.923141e+0 7.803613e-1 6.000000e+0
    endloop
  endfacet
  facet normal 9.569403e-1 2.902847e-1 0.000000e+0
    outer loop
      vertex 3.923141e+0 7.803613e-1 -6.000000e+0
      vertex 3.695518e+0 1.530734e+0 -6.000000e+0
      vertex 3.695518e+0 1.530734e+0 6.000000e+0
    endloop
  endfacet
  facet normal 9.569403e-1 2.902847e-1 0.000000e+0
    outer loop
      vertex 3.923141e+0 7.803613e-1 -6.000000e+0
      vertex 3.695518e+0 1.530734e+0 6.000000e+0
      vertex 3.923141e+0 7.803613e-1 6.000000e+0
    endloop
  endfacet
  facet normal 0.000000e+0 0.000000e+0 1.000000e+0
    outer loop
      vertex 0.000000e+0 0.000000e+0 -6.000000e+0
      vertex 3.923141e+0 7.803613e-1 -6.000000e+0
      vertex 3.695518e+0 1.530734e+0 -6.000000e+0
    endloop
  endfacet
  facet normal 0.000000e+0 0.000000e+0 1.000000e+0
    outer loop
      vertex 0.000000e+0 0.000000e+0 6.000000e+0
      vertex 3.923141e+0 7.803613e-1 6.000000e+0
      vertex 3.695518e+0 1.530734e+0 6.000000e+0
    endloop
  endfacet
  facet normal 8.819213e-1 4.713967e-1 0.000000e+0
    outer loop
      vertex 3.695518e+0 1.530734e+0 -6.000000e+0
      vertex 3.325878e+0 2.222281e+0 -6.000000e+0
      vertex 3.325878e+0 2.222281e+0 6.000000e+0
    endloop
  endfacet
  facet normal 8.819213e-1 4.713967e-1 0.000000e+0
    outer loop
      vertex 3.695518e+0 1.530734e+0 -6.000000e+0
      vertex 3.325878e+0 2.222281e+0 6.000000e+0
      vertex 3.695518e+0 1.530734e+0 6.000000e+0
    endloop
  endfacet
  facet normal 0.000000e+0 0.000000e+0 1.000000e+0
    outer loop
      vertex 0.000000e+0 0.000000e+0 -6.000000e+0
      vertex 3.695518e+0 1.530734e+0 -6.000000e+0
      vertex 3.325878e+0 2.222281e+0 -6.000000e+0
    endloop
  endfacet
  facet normal 0.000000e+0 0.000000e+0 1.000000e+0
    outer loop
      vertex 0.000000e+0 0.000000e+0 6.000000e+0
      vertex 3.695518e+0 1.530734e+0 6.000000e+0
      vertex 3.325878e+0 2.222281e+0 6.000000e+0
    endloop
  endfacet
  facet normal 7.730105e-1 6.343933e-1 0.000000e+0
    outer loop
      vertex 3.325878e+0 2.222281e+0 -6.000000e+0
      vertex 2.828427e+0 2.828427e+0 -6.000000e+0
      vertex 2.828427e+0 2.828427e+0 6.000000e+0
    endloop
  endfacet
  facet normal 7.730105e-1 6.343933e-1 0.000000e+0
    outer loop
      vertex 3.325878e+0 2.222281e+0 -6.000000e+0
      vertex 2.828427e+0 2.828427e+0 6.000000e+0
      vertex 3.325878e+0 2.222281e+0 6.000000e+0
    endloop
  endfacet
  facet normal 0.000000e+0 0.000000e+0 1.000000e+0
    outer loop
      vertex 0.000000e+0 0.000000e+0 -6.000000e+0
      vertex 3.325878e+0 2.222281e+0 -6.000000e+0
      vertex 2.828427e+0 2.828427e+0 -6.000000e+0
    endloop
  endfacet
  facet normal 0.000000e+0 0.000000e+0 1.000000e+0
    outer loop
      vertex 0.000000e+0 0.000000e+0 6.000000e+0
      vertex 3.325878e+0 2.222281e+0 6.000000e+0
      vertex 2.828427e+0 2.828427e+0 6.000000e+0
    endloop
  endfacet
  facet normal 6.343933e-1 7.730105e-1 0.000000e+0
    outer loop
      vertex 2.828427e+0 2.828427e+0 -6.000000e+0
      vertex 2.222281e+0 3.325878e+0 -6.000000e+0
      vertex 2.222281e+0 3.325878e+0 6.000000e+0
    endloop
  endfacet
  facet normal 6.343933e-1 7.730105e-1 0.000000e+0
    outer loop
      vertex 2.828427e+0 2.828427e+0 -6.000000e+0
      vertex 2.222281e+0 3.325878e+0 6.000000e+0
      vertex 2.828427e+0 2.828427e+0 6.000000e+0
    endloop
  endfacet
  facet normal 0.000000e+0 0.000000e+0 1.000000e+0
    outer loop
      vertex 0.000000e+0 0.000000e+0 -6.000000e+0
      vertex 2.828427e+0 2.828427e+0 -6.000000e+0
      vertex 2.222281e+0 3.325878e+0 -6.000000e+0
    endloop
  endfacet
  facet normal 0.000000e+0 0.000000e+0 1.000000e+0
    outer loop
      vertex 0.000000e+0 0.000000e+0 6.000000e+0
      vertex 2.828427e+0 2.828427e+0 6.000000e+0
      vertex 2.222281e+0 3.325878e+0 6.000000e+0
    endloop
  endfacet
  facet normal 4.713967e-1 8.819213e-1 0.000000e+0
    outer loop
      vertex 2.222281e+0 3.325878e+0 -6.000000e+0
      vertex 1.530734e+0 3.695518e+0 -6.000000e+0
      vertex 1.530734e+0 3.695518e+0 6.000000e+0
    endloop
  endfacet
  facet normal 4.713967e-1 8.819213e-1 0.000000e+0
    outer loop
      vertex 2.222281e+0 3.325878e+0 -6.000000e+0
      vertex 1.530734e+0 3.695518e+0 6.000000e+0
      vertex 2.222281e+0 3.325878e+0 6.000000e+0
    endloop
  endfacet
  facet normal 0.000000e+0 0.000000e+0 1.000000e+0
    outer loop
      vertex 0.000000e+0 0.000000e+0 -6.000000e+0
      vertex 2.222281e+0 3.325878e+0 -6.000000e+0
      vertex 1.530734e+0 3.695518e+0 -6.000000e+0
    endloop
  endfacet
  facet normal 0.000000e+0 0.000000e+0 1.000000e+0
    outer loop
      vertex 0.000000e+0 0.000000e+0 6.000000e+0
      vertex 2.222281e+0 3.325878e+0 6.000000e+0
      vertex 1.530734e+0 3.695518e+0 6.000000e+0
    endloop
  endfacet
  facet normal 2.902847e-1 9.569403e-1 0.000000e+0
    outer loop
      vertex 1.530734e+0 3.695518e+0 -6.000000e+0
      vertex 7.803613e-1 3.923141e+0 -6.000000e+0
      vertex 7.803613e-1 3.923141e+0 6.000000e+0
    endloop
  endfacet
  facet normal 2.902847e-1 9.569403e-1 0.000000e+0
    outer loop
      vertex 1.530734e+0 3.695518e+0 -6.000000e+0
      vertex 7.803613e-1 3.923141e+0 6.000000e+0
      vertex 1.530734e+0 3.695518e+0 6.000000e+0
    endloop
  endfacet
  facet normal 0.000000e+0 0.000000e+0 1.000000e+0
    outer loop
      vertex 0.000000e+0 0.000000e+0 -6.000000e+0
      vertex 1.530734e+0 3.695518e+0 -6.000000e+0
      vertex 7.803613e-1 3.923141e+0 -6.000000e+0
    endloop
  endfacet
  facet normal 0.000000e+0 0.000000e+0 1.000000e+0
    outer loop
      vertex 0.000000e+0 0.000000e+0 6.000000e+0
      vertex 1.530734e+0 3.695518e+0 6.000000e+0
      vertex 7.803613e-1 3.923141e+0 6.000000e+0
    endloop
  endfacet
  facet normal 9.801714e-2 9.951847e-1 0.000000e+0
    outer loop
      vertex 7.803613e-1 3.923141e+0 -6.000000e+0
      vertex 2.449294e-16 4.000000e+0 -6.000000e+0
      vertex 2.449294e-16 4.000000e+0 6.000000e+0
    endloop
  endfacet
  facet normal 9.801714e-2 9.951847e-1 0.000000e+0
    outer loop
      vertex 7.803613e-1 3.923141e+0 -6.000000e+0
      vertex 2.449294e-16 4.000000e+0 6.000000e+0
      vertex 7.803613e-1 3.923141e+0 6.000000e+0
    endloop
  endfacet
  facet normal 0.000000e+0 0.000000e+0 1.000000e+0
    outer loop
      vertex 0.000000e+0 0.000000e+0 -6.000000e+0
      vertex 7.803613e-1 3.923141e+0 -6.000000e+0
      vertex 2.449294e-16 4.000000e+0 -6.000000e+0
    endloop
  endfacet
  facet normal 0.000000e+0 0.000000e+0 1.000000e+0
    outer loop
      vertex 0.000000e+0 0.000000e+0 6.000000e+0
      vertex 7.803613e-1 3.923141e+0 6.000000e+0
      vertex 2.449294e-16 4.000000e+0 6.000000e+0
    endloop
  endfacet
  facet normal -9.801714e-2 9.951847e-1 0.000000e+0
    outer loop
      vertex 2.449294e-16 4.000000e+0 -6.000000e+0
      vertex -7.803613e-1 3.923141e+0 -6.000000e+0
      vertex -7.803613e-1 3.923141e+0 6.000000e+0
    endloop
  endfacet
  facet normal -9.801714e-2 9.951847e-1 0.000000e+0
    outer loop
      vertex 2.449294e-16 4.000000e+0 -6.000000e+0
      vertex -7.803613e-1 3.923141e+0 6.000000e+0
      vertex 2.449294e-16 4.000000e+0 6.000000e+0
    endloop
  endfacet
  facet normal 0.000000e+0 0.000000e+0 1.000000e+0
    outer loop
      vertex 0.000000e+0 0.000000e+0 -6.000000e+0
      vertex 2.449294e-16 4.000000e+0 -6.000000e+0
      vertex -7.803613e-1 3.923141e+0 -6.000000e+0
    endloop
  endfacet
  facet normal 0.000000e+0 0.000000e+0 1.000000e+0
    outer loop
      vertex 0.000000e+0 0.000000e+0 6.000000e+0
      vertex 2.449294e-16 4.000000e+0 6.000000e+0
      vertex -7.803613e-1 3.923141e+0 6.000000e+0
    endloop
  endfacet
  facet normal -2.902847e-1 9.569403e-1 0.000000e+0
    outer loop
      vertex -7.803613e-1 3.923141e+0 -6.000000e+0
      vertex -1.530734e+0 3.695518e+0 -6.000000e+0
      vertex -1.530734e+0 3.695518e+0 6.000000e+0
    endloop
  endfacet
  facet normal -2.902847e-1 9.569403e-1 0.000000e+0
    outer loop
      vertex -7.803613e-1 3.923141e+0 -6.000000e+0
      vertex -1.530734e+0 3.695518e+0 6.000000e+0
      vertex -7.803613e-1 3.923141e+0 6.000000e+0
    endloop
  endfacet
  facet normal 0.000000e+0 0.000000e+0 1.000000e+0
    outer loop
      vertex 0.000000e+0 0.000000e+0 -6.000000e+0
      vertex -7.803613e-1 3.923141e+0 -6.000000e+0
      vertex -1.530734e+0 3.695518e+0 -6.000000e+0
    endloop
  endfacet
  facet normal 0.000000e+0 0.000000e+0 1.000000e+0
    outer loop
      vertex 0.000000e+0 0.000000e+0 6.000000e+0
      vertex -7.803613e-1 3.923141e+0 6.000000e+0
      vertex -1.530734e+0 3.695518e+0 6.000000e+0
    endloop
  endfacet
  facet normal -4.713967e-1 8.819213e-1 0.000000e+0
    outer loop
      vertex -1.530734e+0 3.695518e+0 -6.000000e+0
      vertex -2.222281e+0 3.325878e+0 -6.000000e+0
      vertex -2.222281e+0 3.325878e+0 6.000000e+0
    endloop
  endfacet
  facet normal -4.713967e-1 8.819213e-1 0.000000e+0
    outer loop
      vertex -1.530734e+0 3.695518e+0 -6.000000e+0
      vertex -2.222281e+0 3.325878e+0 6.000000e+0
      vertex -1.530734e+0 3.695518e+0 6.000000e+0
    endloop
  endfacet
  facet normal 0.000000e+0 0.000000e+0 1.000000e+0
    outer loop
      vertex 0.000000e+0 0.000000e+0 -6.000000e+0
      vertex -1.530734e+0 3.695518e+0 -6.000000e+0
      vertex -2.222281e+0 3.325878e+0 -6.000000e+0
    endloop
  endfacet
  facet normal 0.000000e+0 0.000000e+0 1.000000e+0
    outer loop
      vertex 0.000000e+0 0.000000e+0 6.000000e+0
      vertex -1.530734e+0 3.695518e+0 6.000000e+0
      vertex -2.222281e+0 3.325878e+0 6.000000e+0
    endloop
  endfacet
  facet normal -6.343933e-1 7.730105e-1 0.000000e+0
    outer loop
      vertex -2.222281e+0 3.325878e+0 -6.000000e+0
      vertex -2.828427e+0 2.828427e+0 -6.000000e+0
      vertex -2.828427e+0 2.828427e+0 6.000000e+0
    endloop
  endfacet
  facet normal -6.343933e-1 7.730105e-1 0.000000e+0
    outer loop
      vertex -2.222281e+0 3.325878e+0 -6.000000e+0
      vertex -2.828427e+0 2.828427e+0 6.000000e+0
      vertex -2.222281e+0 3.325878e+0 6.000000e+0
    endloop
  endfacet
  facet normal 0.000000e+0 0.000000e+0 1.000000e+0
    outer loop
      vertex 0.000000e+0 0.000000e+0 -6.000000e+0
      vertex -2.222281e+0 3.325878e+0 -6.000000e+0
      vertex -2.828427e+0 2.828427e+0 -6.000000e+0
    endloop
  endfacet
  facet normal 0.000000e+0 0.000000e+0 1.000000e+0
    outer loop
      vertex 0.000000e+0 0.000000e+0 6.000000e+0
      vertex -2.222281e+0 3.325878e+0 6.000000e+0
      vertex -2.828427e+0 2.828427e+0 6.000000e+0
    endloop
  endfacet
  facet normal -7.730105e-1 6.343933e-1 0.000000e+0
    outer loop
      vertex -2.828427e+0 2.828427e+0 -6.000000e+0
      vertex -3.325878e+0 2.222281e+0 -6.000000e+0
      vertex -3.325878e+0 2.222281e+0 6.000000e+0
    endloop
  endfacet
  facet normal -7.730105e-1 6.343933e-1 0.000000e+0
    outer loop
      vertex -2.828427e+0 2.828427e+0 -6.000000e+0
      vertex -3.325878e+0 2.222281e+0 6.000000e+0
      vertex -2.828427e+0 2.828427e+0 6.000000e+0
    endloop
  endfacet
  facet normal 0.000000e+0 0.000000e+0 1.000000e+0
    outer loop
      vertex 0.000000e+0 0.000000e+0 -6.000000e+0
      vertex -2.828427e+0 2.828427e+0 -6.000000e+0
      vertex -3.325878e+0 2.222281e+0 -6.000000e+0
    endloop
  endfacet
  facet normal 0.000000e+0 0.000000e+0 1.000000e+0
    outer loop
      vertex 0.000000e+0 0.000000e+0 6.000000e+0
      vertex -2.828427e+0 2.828427e+0 6.000000e+0
      vertex -3.325878e+0 2.222281e+0 6.000000e+0
    endloop
  endfacet
  facet normal -8.819213e-1 4.713967e-1 0.000000e+0
    outer loop
      vertex -3.325878e+0 2.222281e+0 -6.000000e+0
      vertex -3.695518e+0 1.530734e+0 -6.000000e+0
      vertex -3.695518e+0 1.530734e+0 6.000000e+0
    endloop
  endfacet
  facet normal -8.819213e-1 4.713967e-1 0.000000e+0
    outer loop
      vertex -3.325878e+0 2.222281e+0 -6.000000e+0
      vertex -3.695518e+0 1.530734e+0 6.000000e+0
      vertex -3.325878e+0 2.222281e+0 6.000000e+0
    endloop
  endfacet
  facet normal 0.000000e+0 0.000000e+0 1.000000e+0
    outer loop
      vertex 0.000000e+0 0.000000e+0 -6.000000e+0
      vertex -3.325878e+0 2.222281e+0 -6.000000e+0
      vertex -3.695518e+0 1.530734e+0 -6.000000e+0
    endloop
  endfacet
  facet normal 0.000000e+0 0.000000e+0 1.000000e+0
    outer loop
      vertex 0.000000e+0 0.000000e+0 6.000000e+0
      vertex -3.325878e+0 2.222281e+0 6.000000e+0
      vertex -3.695518e+0 1.530734e+0 6.000000e+0
    endloop
  endfacet
  facet normal -9.569403e-1 2.902847e-1 0.000000e+0
    outer loop
      vertex -3.695518e+0 1.530734e+0 -6.000000e+0
      vertex -3.923141e+0 7.803613e-1 -6.000000e+0
      vertex -3.923141e+0 7.803613e-1 6.000000e+0
    endloop
  endfacet
  facet normal -9.569403e-1 2.902847e-1 0.000000e+0
    outer loop
      vertex -3.695518e+0 1.530734e+0 -6.000000e+0
      vertex -3.923141e+0 7.803613e-1 6.000000e+0
      vertex -3.695518e+0 1.530734e+0 6.000000e+0
    endloop
  endfacet
  facet normal 0.000000e+0 0.000000e+0 1.000000e+0
    outer loop
      vertex 0.000000e+0 0.000000e+0 -6.000000e+0
      vertex -3.695518e+0 1.530734e+0 -6.000000e+0
      vertex -3.923141e+0 7.803613e-1 -6.000000e+0
    endloop
  endfacet
  facet normal 0.000000e+0 0.000000e+0 1.000000e+0
    outer loop
      vertex 0.000000e+0 0.000000e+0 6.000000e+0
      vertex -3.695518e+0 1.530734e+0 6.000000e+0
      vertex -3.923141e+0 7.803613e-1 6.000000e+0
    endloop
  endfacet
  facet normal -9.951847e-1 9.801714e-2 0.000000e+0
    outer loop
      vertex -3.923141e+0 7.803613e-1 -6.000000e+0
      vertex -4.000000e+0 4.898587e-16 -6.000000e+0
      vertex -4.000000e+0 4.898587e-16 6.000000e+0
    endloop
  endfacet
  facet normal -9.951847e-1 9.801714e-2 0.000000e+0
    outer loop
      vertex -3.923141e+0 7.803613e-1 -6.000000e+0
      vertex -4.000000e+0 4.898587e-16 6.000000e+0
      vertex -3.923141e+0 7.803613e-1 6.000000e+0
    endloop
  endfacet
  facet normal 0.000000e+0 0.000000e+0 1.000000e+0
    outer loop
      vertex 0.000000e+0 0.000000e+0 -6.000000e+0
      vertex -3.923141e+0 7.803613e-1 -6.000000e+0
      vertex -4.000000e+0 4.898587e-16 -6.000000e+0
    endloop
  endfacet
  facet normal 0.000000e+0 0.000000e+0 1.000000e+0
    outer loop
      vertex 0.000000e+0 0.000000e+0 6.000000e+0
      vertex -3.923141e+0 7.803613e-1 6.000000e+0
      vertex -4.000000e+0 4.898587e-16 6.000000e+0
    endloop
  endfacet
  facet normal -9.951847e-1 -9.801714e-2 0.000000e+0
    outer loop
      vertex -4.000000e+0 4.898587e-16 -6.000000e+0
      vertex -3.923141e+0 -7.803613e-1 -6.000000e+0
      vertex -3.923141e+0 -7.803613e-1 6.000000e+0
    endloop
  endfacet
  facet normal -9.951847e-1 -9.801714e-2 0.000000e+0
    outer loop
      vertex -4.000000e+0 4.898587e-16 -6.000000e+0
      vertex -3.923141e+0 -7.803613e-1 6.000000e+0
      vertex -4.000000e+0 4.898587e-16 6.000000e+0
    endloop
  endfacet
  facet normal 0.000000e+0 0.000000e+0 1.000000e+0
    outer loop
      vertex 0.000000e+0 0.000000e+0 -6.000000e+0
      vertex -4.000000e+0 4.898587e-16 -6.000000e+0
      vertex -3.923141e+0 -7.803613e-1 -6.000000e+0
    endloop
  endfacet
  facet normal 0.000000e+0 0.000000e+0 1.000000e+0
    outer loop
      vertex 0.000000e+0 0.000000e+0 6.000000e+0
      vertex -4.000000e+0 4.898587e-16 6.000000e+0
      vertex -3.923141e+0 -7.803613e-1 6.000000e+0
    endloop
  endfacet
  facet normal -9.569403e-1 -2.902847e-1 0.000000e+0
    outer loop
      vertex -3.923141e+0 -7.803613e-1 -6.000000e+0
      vertex -3.695518e+0 -1.530734e+0 -6.000000e+0
      vertex -3.695518e+0 -1.530734e+0 6.000000e+0
    endloop
  endfacet
  facet normal -9.569403e-1 -2.902847e-1 0.000000e+0
    outer loop
      vertex -3.923141e+0 -7.803613e-1 -6.000000e+0
      vertex -3.695518e+0 -1.530734e+0 6.000000e+0
      vertex -3.923141e+0 -7.803613e-1 6.000000e+0
    endloop
  endfacet
  facet normal 0.000000e+0 0.000000e+0 1.000000e+0
    outer loop
      vertex 0.000000e+0 0.000000e+0 -6.000000e+0
      vertex -3.923141e+0 -7.803613e-1 -6.000000e+0
      vertex -3.695518e+0 -1.530734e+0 -6.000000e+0
    endloop
  endfacet
  facet normal 0.000000e+0 0.000000e+0 1.000000e+0
    outer loop
      vertex 0.000000e+0 0.000000e+0 6.000000e+0
      vertex -3.923141e+0 -7.803613e-1 6.000000e+0
      vertex -3.695518e+0 -1.530734e+0 6.000000e+0
    endloop
  endfacet
  facet normal -8.819213e-1 -4.713967e-1 0.000000e+0
    outer loop
      vertex -3.695518e+0 -1.530734e+0 -6.000000e+0
      vertex -3.325878e+0 -2.222281e+0 -6.000000e+0
      vertex -3.325878e+0 -2.222281e+0 6.000000e+0
    endloop
  endfacet
  facet normal -8.819213e-1 -4.713967e-1 0.000000e+0
    outer loop
      vertex -3.695518e+0 -1.530734e+0 -6.000000e+0
      vertex -3.325878e+0 -2.222281e+0 6.000000e+0
      vertex -3.695518e+0 -1.530734e+0 6.000000e+0
    endloop
  endfacet
  facet normal 0.000000e+0 0.000000e+0 1.000000e+0
    outer loop
      vertex 0.000000e+0 0.000000e+0 -6.000000e+0
      vertex -3.695518e+0 -1.530734e+0 -6.000000e+0
      vertex -3.325878e+0 -2.222281e+0 -6.000000e+0
    endloop
  endfacet
  facet normal 0.000000e+0 0.000000e+0 1.000000e+0
    outer loop
      vertex 0.000000e+0 0.000000e+0 6.000000e+0
      vertex -3.695518e+0 -1.530734e+0 6.000000e+0
      vertex -3.325878e+0 -2.222281e+0 6.000000e+0
    endloop
  endfacet
  facet normal -7.730105e-1 -6.343933e-1 0.000000e+0
    outer loop
      vertex -3.325878e+0 -2.222281e+0 -6.000000e+0
      vertex -2.828427e+0 -2.828427e+0 -6.000000e+0
      vertex -2.828427e+0 -2.828427e+0 6.000000e+0
    endloop
  endfacet
  facet normal -7.730105e-1 -6.343933e-1 0.000000e+0
    outer loop
      vertex -3.325878e+0 -2.222281e+0 -6.000000e+0
      vertex -2.828427e+0 -2.828427e+0 6.000000e+0
      vertex -3.325878e+0 -2.222281e+0 6.000000e+0
    endloop
  endfacet
  facet normal 0.000000e+0 0.000000e+0 1.000000e+0
    outer loop
      vertex 0.000000e+0 0.000000e+0 -6.000000e+0
      vertex -3.325878e+0 -2.222281e+0 -6.000000e+0
      vertex -2.828427e+0 -2.828427e+0 -6.000000e+0
    endloop
  endfacet
  facet normal 0.000000e+0 0.000000e+0 1.000000e+0
    outer loop
      vertex 0.000000e+0 0.000000e+0 6.000000e+0
      vertex -3.325878e+0 -2.222281e+0 6.000000e+0
      vertex -2.828427e+0 -2.828427e+0 6.000000e+0
    endloop
  endfacet
  facet normal -6.343933e-1 -7.730105e-1 0.000000e+0
    outer loop
      vertex -2.828427e+0 -2.828427e+0 -6.000000e+0
      vertex -2.222281e+0 -3.325878e+0 -6.000000e+0
      vertex -2.222281e+0 -3.325878e+0 6.000000e+0
    endloop
  endfacet
  facet normal -6.343933e-1 -7.730105e-1 0.000000e+0
    outer loop
      vertex -2.828427e+0 -2.828427e+0 -6.000000e+0
      vertex -2.222281e+0 -3.325878e+0 6.000000e+0
      vertex -2.828427e+0 -2.828427e+0 6.000000e+0
    endloop
  endfacet
  facet normal 0.000000e+0 0.000000e+0 1.000000e+0
    outer loop
      vertex 0.000000e+0 0.000000e+0 -6.000000e+0
      vertex -2.828427e+0 -2.828427e+0 -6.000000e+0
      vertex -2.222281e+0 -3.325878e+0 -6.000000e+0
    endloop
  endfacet
  facet normal 0.000000e+0 0.000000e+0 1.000000e+0
    outer loop
      vertex 0.000000e+0 0.000000e+0 6.000000e+0
      vertex -2.828427e+0 -2.828427e+0 6.000000e+0
      vertex -2.222281e+0 -3.325878e+0 6.000000e+0
    endloop
  endfacet
  facet normal -4.713967e-1 -8.819213e-1 0.000000e+0
    outer loop
      vertex -2.222281e+0 -3.325878e+0 -6.000000e+0
      vertex -1.530734e+0 -3.695518e+0 -6.000000e+0
      vertex -1.530734e+0 -3.695518e+0 6.000000e+0
    endloop
  endfacet
  facet normal -4.713967e-1 -8.819213e-1 0.000000e+0
    outer loop
      vertex -2.222281e+0 -3.325878e+0 -6.000000e+0
      vertex -1.530734e+0 -3.695518e+0 6.000000e+0
      vertex -2.222281e+0 -3.325878e+0 6.000000e+0
    endloop
  endfacet
  facet normal 0.000000e+0 0.000000e+0 1.000000e+0
    outer loop
      vertex 0.000000e+0 0.000000e+0 -6.000000e+0
      vertex -2.222281e+0 -3.325878e+0 -6.000000e+0
      vertex -1.530734e+0 -3.695518e+0 -6.000000e+0
    endloop
  endfacet
  facet normal 0.000000e+0 0.000000e+0 1.000000e+0
    outer loop
      vertex 0.000000e+0 0.000000e+0 6.000000e+0
      vertex -2.222281e+0 -3.325878e+0 6.000000e+0
      vertex -1.530734e+0 -3.695518e+0 6.000000e+0
    endloop
  endfacet
  facet normal -2.902847e-1 -9.569403e-1 0.000000e+0
    outer loop
      vertex -1.530734e+0 -3.695518e+0 -6.000000e+0
      vertex -7.803613e-1 -3.923141e+0 -6.000000e+0
      vertex -7.803613e-1 -3.923141e+0 6.000000e+0
    endloop
  endfacet
  facet normal -2.902847e-1 -9.569403e-1 0.000000e+0
    outer loop
      vertex -1.530734e+0 -3.695518e+0 -6.000000e+0
      vertex -7.803613e-1 -3.923141e+0 6.000000e+0
      vertex -1.530734e+0 -3.695518e+0 6.000000e+0
    endloop
  endfacet
  facet normal 0.000000e+0 0.000000e+0 1.000000e+0
    outer loop
      vertex 0.000000e+0 0.000000e+0 -6.000000e+0
      vertex -1.530734e+0 -3.695518e+0 -6.000000e+0
      vertex -7.803613e-1 -3.923141e+0 -6.000000e+0
    endloop
  endfacet
  facet normal 0.000000e+0 0.000000e+0 1.000000e+0
    outer loop
      vertex 0.000000e+0 0.000000e+0 6.000000e+0
      vertex -1.530734e+0 -3.695518e+0 6.000000e+0
      vertex -7.803613e-1 -3.923141e+0 6.000000e+0
    endloop
  endfacet
  facet normal -9.801714e-2 -9.951847e-1 0.000000e+0
    outer loop
      vertex -7.803613e-1 -3.923141e+0 -6.000000e+0
      vertex -7.347881e-16 -4.000000e+0 -6.000000e+0
      vertex -7.347881e-16 -4.000000e+0 6.000000e+0
    endloop
  endfacet
  facet normal -9.801714e-2 -9.951847e-1 0.000000e+0
    outer loop
      vertex -7.803613e-1 -3.923141e+0 -6.000000e+0
      vertex -7.347881e-16 -4.000000e+0 6.000000e+0
      vertex -7.803613e-1 -3.923141e+0 6.000000e+0
    endloop
  endfacet
  facet normal 0.000000e+0 0.000000e+0 1.000000e+0
    outer loop
      vertex 0.000000e+0 0.000000e+0 -6.000000e+0
      vertex -7.803613e-1 -3.923141e+0 -6.000000e+0
      vertex -7.347881e-16 -4.000000e+0 -6.000000e+0
    endloop
  endfacet
  facet normal 0.000000e+0 0.000000e+0 1.000000e+0
    outer loop
      vertex 0.000000e+0 0.000000e+0 6.000000e+0
      vertex -7.803613e-1 -3.923141e+0 6.000000e+0
      vertex -7.347881e-16 -4.000000e+0 6.000000e+0
    endloop
  endfacet
  facet normal 9.801714e-2 -9.951847e-1 0.000000e+0
    outer loop
      vertex -7.347881e-16 -4.000000e+0 -6.000000e+0
      vertex 7.803613e-1 -3.923141e+0 -6.000000e+0
      vertex 7.803613e-1 -3.923141e+0 6.000000e+0
    endloop
  endfacet
  facet normal 9.801714e-2 -9.951847e-1 0.000000e+0
    outer loop
      vertex -7.347881e-16 -4.000000e+0 -6.000000e+0
      vertex 7.803613e-1 -3.923141e+0 6.000000e+0
      vertex -7.347881e-16 -4.000000e+0 6.000000e+0
    endloop
  endfacet
  facet normal 0.000000e+0 0.000000e+0 1.000000e+0
    outer loop
      vertex 0.000000e+0 0.000000e+0 -6.000000e+0
      vertex -7.347881e-16 -4.000000e+0 -6.000000e+0
      vertex 7.803613e-1 -3.923141e+0 -6.000000e+0
    endloop
  endfacet
  facet normal 0.000000e+0 0.000000e+0 1.000000e+0
    outer loop
      vertex 0.000000e+0 0.000000e+0 6.000000e+0
      vertex -7.347881e-16 -4.000000e+0 6.000000e+0
      vertex 7.803613e-1 -3.923141e+0 6.000000e+0
    endloop
  endfacet
  facet normal 2.902847e-1 -9.569403e-1 0.000000e+0
    outer loop
      vertex 7.803613e-1 -3.923141e+0 -6.000000e+0
      vertex 1.530734e+0 -3.695518e+0 -6.000000e+0
      vertex 1.530734e+0 -3.695518e+0 6.000000e+0
    endloop
  endfacet
  facet normal 2.902847e-1 -9.569403e-1 0.000000e+0
    outer loop
      vertex 7.803613e-1 -3.923141e+0 -6.000000e+0
      vertex 1.530734e+0 -3.695518e+0 6.000000e+0
      vertex 7.803613e-1 -3.923141e+0 6.000000e+0
    endloop
  endfacet
  facet normal 0.000000e+0 0.000000e+0 1.000000e+0
    outer loop
      vertex 0.000000e+0 0.000000e+0 -6.000000e+0
      vertex 7.803613e-1 -3.923141e+0 -6.000000e+0
      vertex 1.530734e+0 -3.695518e+0 -6.000000e+0
    endloop
  endfacet
  facet normal 0.000000e+0 0.000000e+0 1.000000e+0
    outer loop
      vertex 0.000000e+0 0.000000e+0 6.000000e+0
      vertex 7.803613e-1 -3.923141e+0 6.000000e+0
      vertex 1.530734e+0 -3.695518e+0 6.000000e+0
    endloop
  endfacet
  facet normal 4.713967e-1 -8.819213e-1 0.000000e+0
    outer loop
      vertex 1.530734e+0 -3.695518e+0 -6.000000e+0
      vertex 2.222281e+0 -3.325878e+0 -6.000000e+0
      vertex 2.222281e+0 -3.325878e+0 6.000000e+0
    endloop
  endfacet
  facet normal 4.713967e-1 -8.819213e-1 0.000000e+0
    outer loop
      vertex 1.530734e+0 -3.695518e+0 -6.000000e+0
      vertex 2.222281e+0 -3.325878e+0 6.000000e+0
      vertex 1.530734e+0 -3.695518e+0 6.000000e+0
    endloop
  endfacet
  facet normal 0.000000e+0 0.000000e+0 1.000000e+0
    outer loop
      vertex 0.000000e+0 0.000000e+0 -6.000000e+0
      vertex 1.530734e+0 -3.695518e+0 -6.000000e+0
      vertex 2.222281e+0 -3.325878e+0 -6.000000e+0
    endloop
  endfacet
  facet normal 0.000000e+0 0.000000e+0 1.000000e+0
    outer loop
      vertex 0.000000e+0 0.000000e+0 6.000000e+0
      vertex 1.530734e+0 -3.695518e+0 6.000000e+0
      vertex 2.222281e+0 -3.325878e+0 6.000000e+0
    endloop
  endfacet
  facet normal 6.343933e-1 -7.730105e-1 0.000000e+0
    outer loop
      vertex 2.222281e+0 -3.325878e+0 -6.000000e+0
      vertex 2.828427e+0 -2.828427e+0 -6.000000e+0
      vertex 2.828427e+0 -2.828427e+0 6.000000e+0
    endloop
  endfacet
  facet normal 6.343933e-1 -7.730105e-1 0.000000e+0
    outer loop
      vertex 2.222281e+0 -3.325878e+0 -6.000000e+0
      vertex 2.828427e+0 -2.828427e+0 6.000000e+0
      vertex 2.222281e+0 -3.325878e+0 6.000000e+0
    endloop
  endfacet
  facet normal 0.000000e+0 0.000000e+0 1.000000e+0
    outer loop
      vertex 0.000000e+0 0.000000e+0 -6.000000e+0
      vertex 2.222281e+0 -3.325878e+0 -6.000000e+0
      vertex 2.828427e+0 -2.828427e+0 -6.000000e+0
    endloop
  endfacet
  facet normal 0.000000e+0 0.000000e+0 1.000000e+0
    outer loop
      vertex 0.000000e+0 0.000000e+0 6.000000e+0
      vertex 2.222281e+0 -3.325878e+0 6.000000e+0
      vertex 2.828427e+0 -2.828427e+0 6.000000e+0
    endloop
  endfacet
  facet normal 7.730105e-1 -6.343933e-1 0.000000e+0
    outer loop
      vertex 2.828427e+0 -2.828427e+0 -6.000000e+0
      vertex 3.325878e+0 -2.222281e+0 -6.000000e+0
      vertex 3.325878e+0 -2.222281e+0 6.000000e+0
    endloop
  endfacet
  facet normal 7.730105e-1 -6.343933e-1 0.000000e+0
    outer loop
      vertex 2.828427e+0 -2.828427e+0 -6.000000e+0
      vertex 3.325878e+0 -2.222281e+0 6.000000e+0
      vertex 2.828427e+0 -2.828427e+0 6.000000e+0
    endloop
  endfacet
  facet normal 0.000000e+0 0.000000e+0 1.000000e+0
    outer loop
      vertex 0.000000e+0 0.000000e+0 -6.000000e+0
      vertex 2.828427e+0 -2.828427e+0 -6.000000e+0
      vertex 3.325878e+0 -2.222281e+0 -6.000000e+0
    endloop
  endfacet
  facet normal 0.000000e+0 0.000000e+0 1.000000e+0
    outer loop
      vertex 0.000000e+0 0.000000e+0 6.000000e+0
      vertex 2.828427e+0 -2.828427e+0 6.000000e+0
      vertex 3.325878e+0 -2.222281e+0 6.000000e+0
    endloop
  endfacet
  facet normal 8.819213e-1 -4.713967e-1 0.000000e+0
    outer loop
      vertex 3.325878e+0 -2.222281e+0 -6.000000e+0
      vertex 3.695518e+0 -1.530734e+0 -6.000000e+0
      vertex 3.695518e+0 -1.530734e+0 6.000000e+0
    endloop
  endfacet
  facet normal 8.819213e-1 -4.713967e-1 0.000000e+0
    outer loop
      vertex 3.325878e+0 -2.222281e+0 -6.000000e+0
      vertex 3.695518e+0 -1.530734e+0 6.000000e+0
      vertex 3.325878e+0 -2.222281e+0 6.000000e+0
    endloop
  endfacet
  facet normal 0.000000e+0 0.000000e+0 1.000000e+0
    outer loop
      vertex 0.000000e+0 0.000000e+0 -6.000000e+0
      vertex 3.325878e+0 -2.222281e+0 -6.000000e+0
      vertex 3.695518e+0 -1.530734e+0 -6.000000e+0
    endloop
  endfacet
  facet normal 0.000000e+0 0.000000e+0 1.000000e+0
    outer loop
      vertex 0.000000e+0 0.000000e+0 6.000000e+0
      vertex 3.325878e+0 -2.222281e+0 6.000000e+0
      vertex 3.695518e+0 -1.530734e+0 6.000000e+0
    endloop
  endfacet
  facet normal 9.569403e-1 -2.902847e-1 0.000000e+0
    outer loop
      vertex 3.695518e+0 -1.530734e+0 -6.000000e+0
      vertex 3.923141e+0 -7.803613e-1 -6.000000e+0
      vertex 3.923141e+0 -7.803613e-1 6.000000e+0
    endloop
  endfacet
  facet normal 9.569403e-1 -2.902847e-1 0.000000e+0
    outer loop
      vertex 3.695518e+0 -1.530734e+0 -6.000000e+0
      vertex 3.923141e+0 -7.803613e-1 6.000000e+0
      vertex 3.695518e+0 -1.530734e+0 6.000000e+0
    endloop
  endfacet
  facet normal 0.000000e+0 0.000000e+0 1.000000e+0
    outer loop
      vertex 0.000000e+0 0.000000e+0 -6.000000e+0
      vertex 3.695518e+0 -1.530734e+0 -6.000000e+0
      vertex 3.923141e+0 -7.803613e-1 -6.000000e+0
    endloop
  endfacet
  facet normal 0.000000e+0 0.000000e+0 1.000000e+0
    outer loop
      vertex 0.000000e+0 0.000000e+0 6.000000e+0
      vertex 3.695518e+0 -1.530734e+0 6.000000e+0
      vertex 3.923141e+0 -7.803613e-1 6.000000e+0
    endloop
  endfacet
  facet normal 9.951847e-1 -9.801714e-2 0.000000e+0
    outer loop
      vertex 3.923141e+0 -7.803613e-1 -6.000000e+0
      vertex 4.000000e+0 0.000000e+0 -6.000000e+0
      vertex 4.000000e+0 0.000000e+0 6.000000e+0
    endloop
  endfacet
  facet normal 9.951847e-1 -9.801714e-2 0.000000e+0
    outer loop
      vertex 3.923141e+0 -7.803613e-1 -6.000000e+0
      vertex 4.000000e+0 0.000000e+0 6.000000e+0
      vertex 3.923141e+0 -7.803613e-1 6.000000e+0
    endloop
  endfacet
  facet normal 0.000000e+0 0.000000e+0 1.000000e+0
    outer loop
      vertex 0.000000e+0 0.000000e+0 -6.000000e+0
      vertex 3.923141e+0 -7.803613e-1 -6.000000e+0
      vertex 4.000000e+0 0.000000e+0 -6.000000e+0
    endloop
  endfacet
  facet normal 0.000000e+0 0.000000e+0 1.000000e+0
    outer loop
      vertex 0.000000e+0 0.000000e+0 6.000000e+0
      vertex 3.923141e+0 -7.803613e-1 6.000000e+0
      vertex 4.000000e+0 0.000000e+0 6.000000e+0
    endloop
  endfacet
endsolid GeneratedModel
