solid GeneratedModel
  facet normal 0.000000e+0 0.000000e+0 1.000000e+0
    outer loop
      vertex -7.500000e+0 -7.500000e+0 -7.500000e+0
      vertex 7.500000e+0 -7.500000e+0 -7.500000e+0
      vertex 7.500000e+0 7.500000e+0 -7.500000e+0
    endloop
  endfacet
  facet normal 0.000000e+0 0.000000e+0 1.000000e+0
    outer loop
      vertex -7.500000e+0 -7.500000e+0 -7.500000e+0
      vertex 7.500000e+0 7.500000e+0 -7.500000e+0
      vertex -7.500000e+0 7.500000e+0 -7.500000e+0
    endloop
  endfacet
  facet normal 0.000000e+0 0.000000e+0 -1.000000e+0
    outer loop
      vertex -7.500000e+0 -7.500000e+0 7.500000e+0
      vertex -7.500000e+0 7.500000e+0 7.500000e+0
      vertex 7.500000e+0 7.500000e+0 7.500000e+0
    endloop
  endfacet
  facet normal 0.000000e+0 0.000000e+0 -1.000000e+0
    outer loop
      vertex -7.500000e+0 -7.500000e+0 7.500000e+0
      vertex 7.500000e+0 7.500000e+0 7.500000e+0
      vertex 7.500000e+0 -7.500000e+0 7.500000e+0
    endloop
  endfacet
  facet normal 0.000000e+0 1.000000e+0 0.000000e+0
    outer loop
      vertex -7.500000e+0 -7.500000e+0 -7.500000e+0
      vertex -7.500000e+0 -7.500000e+0 7.500000e+0
      vertex 7.500000e+0 -7.500000e+0 7.500000e+0
    endloop
  endfacet
  facet normal 0.000000e+0 1.000000e+0 0.000000e+0
    outer loop
      vertex -7.500000e+0 -7.500000e+0 -7.500000e+0
      vertex 7.500000e+0 -7.500000e+0 7.500000e+0
      vertex 7.500000e+0 -7.500000e+0 -7.500000e+0
    endloop
  endfacet
  facet normal 0.000000e+0 -1.000000e+0 0.000000e+0
    outer loop
      vertex 7.500000e+0 7.500000e+0 -7.500000e+0
      vertex 7.500000e+0 7.500000e+0 7.500000e+0
      vertex -7.500000e+0 7.500000e+0 7.500000e+0
    endloop
  endfacet
  facet normal 0.000000e+0 -1.000000e+0 0.000000e+0
    outer loop
      vertex 7.500000e+0 7.500000e+0 -7.500000e+0
      vertex -7.500000e+0 7.500000e+0 7.500000e+0
      vertex -7.500000e+0 7.500000e+0 -7.500000e+0
    endloop
  endfacet
  facet normal 1.000000e+0 0.000000e+0 0.000000e+0
    outer loop
      vertex -7.500000e+0 -7.500000e+0 -7.500000e+0
      vertex -7.500000e+0 7.500000e+0 -7.500000e+0
      vertex -7.500000e+0 7.500000e+0 7.500000e+0
    endloop
  endfacet
  facet normal 1.000000e+0 0.000000e+0 0.000000e+0
    outer loop
      vertex -7.500000e+0 -7.500000e+0 -7.500000e+0
      vertex -7.500000e+0 7.500000e+0 7.500000e+0
      vertex -7.500000e+0 -7.500000e+0 7.500000e+0
    endloop
  endfacet
  facet normal -1.000000e+0 0.000000e+0 0.000000e+0
    outer loop
      vertex 7.500000e+0 -7.500000e+0 -7.500000e+0
      vertex 7.500000e+0 -7.500000e+0 7.500000e+0
      vertex 7.500000e+0 7.500000e+0 7.500000e+0
    endloop
  endfacet
  facet normal -1.000000e+0 0.000000e+0 0.000000e+0
    outer loop
      vertex 7.500000e+0 -7.500000e+0 -7.500000e+0
      vertex 7.500000e+0 7.500000e+0 7.500000e+0
      vertex 7.500000e+0 7.500000e+0 -7.500000e+0
    endloop
  endfacet
endsolid GeneratedModel
